<svg height="178.491pt" viewBox="0 0 731.486 178.491" width="731.486pt" xmlns="http://www.w3.org/2000/svg" xmlns:xlink="http://www.w3.org/1999/xlink"><clipPath id="a"><path d="m0 178.491h731.486v-178.491h-731.486z" transform="matrix(1 0 0 -1 0 178.491)"/></clipPath><g enable-background="new"><path d="m0 0h18.022l8.485-46.822 12.5 46.822h15.847l14.838-47.641 8.68 47.641h17.125l-14.651-70.06h-19.773l-13.146 43.711-13.451-43.711h-20.743z" fill="#FFFFFF" transform="matrix(1 0 0 -1 182.0863 54.122697)"/><path d="m0 0h-18.023l-8.468 46.991-12.514-46.991h-15.852l-14.777 47.63-8.735-47.63h-17.129l14.652 70.06h19.771l13.144-43.746 13.462 43.746h20.736z" fill="#FFFFFF" transform="matrix(1 0 0 -1 704.9643 124.1823)"/><g clip-path="url(#a)"><g fill="#FFFFFF"><path d="m0 0c11.206 0 15.663 10.841 15.663 22.379 0 12.155-4.457 22.387-15.663 22.387-11.204 0-15.662-10.232-15.662-22.387 0-11.538 4.458-22.379 15.662-22.379m0 58.62c22.805 0 34.701-13.759 34.701-36.241 0-22.282-12.093-36.228-34.701-36.228-22.598 0-34.691 13.946-34.691 36.228 0 22.482 11.894 36.241 34.691 36.241" transform="matrix(1 0 0 -1 315.3275 111.5299)"/><path d="m0 0h18.441v-56.211h28.551v-13.844h-46.992z" transform="matrix(1 0 0 -1 360.3393 54.112398)"/><path d="m0 0h46.279v-13.252h-27.844v-15.362h26.657v-13.241h-26.657v-28.2h-18.435z" transform="matrix(1 0 0 -1 414.9652 54.112398)"/><path d="m0 0h4.866c5.943 0 13.479.204 13.479 8.136 0 6.52-6.445 7.729-13.479 7.729h-4.866zm-18.436 29.117h32.912c12.296 0 22.308-5.617 22.308-17.672 0-9.337-4.363-15.556-13.284-17.663v-.204c5.941-1.607 6.346-6.928 9.815-15.459l6.733-19.057h-19.227l-3.96 12.638c-3.774 12.042-6.147 15.057-12.988 15.057h-3.873v-27.695h-18.436z" transform="matrix(1 0 0 -1 489.3217 83.2296)"/><path d="m0 0h-.193l-8.921-27.394h17.34zm-11.307 14.461h22.61l26.665-70.055h-20.224l-5.155 14.945h-25.968l-5.456-14.945h-18.74z" transform="matrix(1 0 0 -1 568.6098 68.573398)"/></g><path d="m0 0-13.584 4.303 16.241 4.788 15.206-5.201zm-21.695-19.163.472 19.35 18.179-5.758 2.274-22.783zm-55.532 13.598 18.185 5.752.465-19.346-20.929-9.186zm-20.894 9.466 15.201 5.19 16.231-4.785-13.584-4.297zm10.373 19.29 12.819 4.756-9.959-12.942-14.6-4.985zm-16.078 23.352 22.356 4.867 10.747-15.256-17.924-6.65zm75.216 26.556-11.519-14.718-11.515 14.723 11.512 19.711zm52.178-26.571-15.181-17.034-17.926 6.658 10.755 15.25zm-58.658-22.142 19.558 6.59 13.015-16.913-20.508-6.047zm-17.567-30.402 9.409-13.727v-16.066l-9.067 15.515zm7.484 30.402-12.065-16.37-20.509 6.047 13.015 16.913zm-31.921 31.631-1.806 18.071 9.192-12.411.462-16.802zm40.078-4.892 20.13 7.158-.588-21.384-19.542-6.584zm-25.774-14.226-.588 21.384 20.13-7.158v-20.81zm22.658-50.166-12.072 17.613 12.072 16.38 12.072-16.38zm36.972 69.279-7.858-11.144.461 16.806 9.206 12.414zm-19.725 14.295 16.261 7.139-8.961-12.086-15.478-5.504zm-26.312-10.452-15.483 5.505-8.959 12.097 16.263-7.144zm21.239-80.154-9.058-15.507v16.063l9.406 13.722zm47.173 30.313-14.59 4.99-9.953 12.934 12.812-4.759zm-5.743 15.817 21.849 24.513-32.083 6.996 3.265 32.675-30.065-13.2-16.57 28.355-16.56-28.352-30.062 13.207 3.262-32.676-32.086-6.987 21.843-24.52-21.847-24.511 32.081-6.996-3.266-32.674 30.066 13.196 16.569-28.353 16.56 28.35 30.063-13.205-3.26 32.675 32.086 6.988z" fill="#d10" transform="matrix(1 0 0 -1 126.6845 115.082599)"/><g fill="#808285"><path d="m0 0c.42 0 .714.154.714.519 0 .321-.168.532-.672.532h-.448v-1.051zm-.854 1.442h.966c.546 0 1.078-.196 1.078-.896 0-.35-.238-.687-.56-.784l.686-1.205h-.518l-.546 1.065h-.658v-1.065h-.448zm3.067-1.499c0 1.345-.939 2.34-2.115 2.34-1.177 0-2.115-.995-2.115-2.34 0-1.33.938-2.297 2.115-2.297 1.176 0 2.115.967 2.115 2.297m-4.665 0c0 1.64 1.163 2.732 2.55 2.732 1.401 0 2.549-1.092 2.549-2.732 0-1.624-1.148-2.703-2.549-2.703-1.387 0-2.55 1.079-2.55 2.703" transform="matrix(1 0 0 -1 136.7333 125.58659)"/><path d="m0 0c.43 0 .732.158.732.531 0 .329-.172.545-.688.545h-.46v-1.076zm-.874 1.478h.989c.559 0 1.105-.202 1.105-.918 0-.359-.244-.704-.574-.803l.702-1.234h-.53l-.56 1.09h-.674v-1.09h-.458zm3.14-1.535c0 1.376-.96 2.395-2.165 2.395s-2.165-1.019-2.165-2.395c0-1.362.96-2.352 2.165-2.352s2.165.99 2.165 2.352m-4.776 0c0 1.678 1.191 2.796 2.611 2.796 1.434 0 2.611-1.118 2.611-2.796 0-1.664-1.177-2.768-2.611-2.768-1.42 0-2.611 1.104-2.611 2.768" transform="matrix(1 0 0 -1 697.7094 56.524499)"/></g></g></g></svg>